<svg xmlns="http://www.w3.org/2000/svg" width="32" height="32" fill="none" viewBox="0 0 32 32"><g clip-path="url(#clip0_2_166)"><path fill="#00261A" d="M26.3333 0H5.66667C2.53705 0 0 2.53705 0 5.66667V25.5333C0 28.6629 2.53705 31.2 5.66667 31.2H26.3333C29.4629 31.2 32 28.6629 32 25.5333V5.66667C32 2.53705 29.4629 0 26.3333 0Z"/><path fill="#52CCA3" d="M13.2487 18.378H7.34961V24.2771H13.2487V18.378Z"/><path fill="#52CCA3" d="M24.0773 18.9833H19.3907V23.6699H24.0773V18.9833Z"/><path fill="#52CCA3" d="M24.0773 7.52832H19.3907V12.2149H24.0773V7.52832Z"/><path fill="#52CCA3" d="M12.6433 7.54938H7.95679V12.2359H12.6433V7.54938Z"/><path fill="#CAFCEB" d="M24.0773 7.52833V12.2121L14.6172 17.0049L19.3932 7.52833H24.076L24.0773 7.52833ZM24.6814 6.92297H19.0213L13.2487 18.3786L24.6826 12.5848V6.92297H24.6814Z"/><path fill="#CAFCEB" d="M24.0773 18.9833V23.6714H19.399L14.7103 18.9833H24.0773ZM24.6826 18.378H13.2487L19.1483 24.2771H24.6829V18.378H24.6826Z"/><path fill="#CAFCEB" d="M12.643 7.55061V16.916L7.95496 12.2274V7.55061H12.643ZM13.2484 6.94525H7.34961V12.4798L13.2487 18.3777V6.94373L13.2484 6.94525Z"/></g><defs><clipPath id="clip0_2_166"><rect width="32" height="32" fill="#fff"/></clipPath></defs></svg>