<svg xmlns="http://www.w3.org/2000/svg" xmlns:xlink="http://www.w3.org/1999/xlink" width="160.01" height="160" preserveAspectRatio="xMidYMid meet" version="1.1" viewBox="76.59 44 164.008 164"><defs><path id="b45vdTD8hs" d="M237.6 95L187.6 95L187.6 45L237.6 45L237.6 95Z"/><path id="a40WtxIl8d" d="M182.59 95L132.59 95L132.59 45L182.59 45L182.59 95Z"/><path id="h2CN9AEEpe" d="M127.59 95L77.59 95L77.59 45L127.59 45L127.59 95Z"/><path id="dqv5133G8" d="M237.6 150L187.6 150L187.6 100L237.6 100L237.6 150Z"/><path id="b1Lv79ypvm" d="M182.59 150L132.59 150L132.59 100L182.59 100L182.59 150Z"/><path id="hy1IZWwLX" d="M182.59 205L132.59 205L132.59 155L182.59 155L182.59 205Z"/><path id="akQfjxQes" d="M237.6 205L187.6 205L187.6 155L237.6 155L237.6 205Z"/><path id="bdSrwE5pk" d="M127.59 205L77.59 205L77.59 155L127.59 155L127.59 205Z"/></defs><g><g><use fill="#f9ad00" fill-opacity="1" opacity="1" xlink:href="#b45vdTD8hs"/></g><g><use fill="#f9ad00" fill-opacity="1" opacity="1" xlink:href="#a40WtxIl8d"/></g><g><use fill="#f9ad00" fill-opacity="1" opacity="1" xlink:href="#h2CN9AEEpe"/></g><g><use fill="#f9ad00" fill-opacity="1" opacity="1" xlink:href="#dqv5133G8"/></g><g><use fill="#fff" fill-opacity="1" opacity="1" xlink:href="#b1Lv79ypvm"/></g><g><use fill="#fff" fill-opacity="1" opacity="1" xlink:href="#hy1IZWwLX"/></g><g><use fill="#fff" fill-opacity="1" opacity="1" xlink:href="#akQfjxQes"/></g><g><use fill="#fff" fill-opacity="1" opacity="1" xlink:href="#bdSrwE5pk"/></g></g></svg>